# AST/ASF file generated using VICON BodyLanguage
# -----------------------------------------------
:version 1.10
:name VICON
:units
  mass 1.0
  length 0.45
  angle deg
:documentation
   .ast/.asf automatically generated from VICON data using
   VICON BodyBuilder and BodyLanguage model FoxedUp or BRILLIANT.MOD
:root
   order TX TY TZ RX RY RZ
   axis XYZ
   position 0 0 0  
   orientation 0 0 0 
:bonedata
  begin
     id 1 
     name lhipjoint
     direction 0.521452 -0.77106 0.36545 
     length 2.0933 
     axis 0 0 0  XYZ
  end
  begin
     id 2 
     name lfemur
     direction 0.34202 -0.939693 0  
     length 6.83441  
     axis 0 0 20  XYZ
    dof rx ry rz
    limits (-160.0 20.0)
           (-70.0 70.0)
           (-60.0 70.0)
  end
  begin
     id 3 
     name ltibia
     direction 0.34202 -0.939693 0   
     length 7.28749   
     axis 0 0 20   XYZ
    dof rx
    limits (-10.0 170.0)
  end
  begin
     id 4 
     name lfoot
     direction 0.100608 -0.276418 0.955757   
     length 1.52195   
     axis -90 7.62852e-016 20   XYZ
    dof rx rz
    limits (-45.0 90.0)
           (-70.0 20.0)
  end
  begin
     id 5 
     name ltoes
     direction 1.53558e-011 -4.21907e-011 1   
     length 0.770459   
     axis -90 7.62852e-016 20   XYZ
    dof rx
    limits (-90.0 20.0)
  end
  begin
     id 6 
     name rhipjoint
     direction -0.488071 -0.788702 0.373812   
     length 2.04648  
     axis 0 0 0  XYZ 
  end
  begin
     id 7 
     name rfemur
     direction -0.34202 -0.939693 0   
     length 6.92583   
     axis 0 0 -20   XYZ
    dof rx ry rz
    limits (-160.0 20.0)
           (-70.0 70.0)
           (-70.0 60.0)
  end
  begin
     id 8 
     name rtibia
     direction -0.34202 -0.939693 0   
     length 7.41043   
     axis 0 0 -20   XYZ
    dof rx
    limits (-10.0 170.0)
 end
 begin
     id 9 
     name rfoot
     direction -0.0784433 -0.215521 0.973343   
     length 1.67708  
     axis -90 -7.62852e-016 -20   XYZ
    dof rx rz
    limits (-45.0 90.0)
           (-20.0 70.0)
  end
  begin
     id 10 
     name rtoes
     direction -1.53551e-011 -4.21842e-011 1   
     length 0.849787   
     axis -90 -7.62852e-016 -20   XYZ
    dof rx
    limits (-90.0 20.0)
  end
  begin
     id 11 
     name lowerback
     direction -0.0122332 0.997575 -0.0685192   
     length 1.98724   
     axis 0 0 0   XYZ
    dof rx ry rz
    limits (-20.0 45.0)
           (-30.0 30.0)
           (-30.0 30.0)
  end
  begin
     id 12 
     name upperback
     direction 0.0182347 0.999724 -0.0148421   
     length 1.99029   
     axis 0 0 0   XYZ
    dof rx ry rz
    limits (-20.0 45.0)
           (-30.0 30.0)
           (-30.0 30.0)
  end
  begin
     id 13 
     name thorax
     direction 0.0242908 0.99956 0.0170184   
     length 1.99573   
     axis 0 0 0   XYZ
    dof rx ry rz
    limits (-20.0 45.0)
           (-30.0 30.0)
           (-30.0 30.0)
  end
  begin
     id 14 
     name lowerneck
     direction 0.0654488 0.985533 0.156338   
     length 1.4285   
     axis 0 0 0   XYZ
    dof rx ry rz
    limits (-20.0 45.0)
           (-30.0 30.0)
           (-30.0 30.0)
  end
  begin
     id 15 
     name upperneck
     direction -0.02953 0.998556 -0.0448842   
     length 1.44709   
     axis 0 0 0   XYZ
    dof rx ry rz
    limits (-20.0 45.0)
           (-30.0 30.0)
           (-30.0 30.0)
  end
  begin
     id 16
     name head
     direction -0.0155588 0.999386 -0.0314063  
     length 1.44689  
     axis 0 0 0   XYZ
    dof rx ry rz
    limits (-20.0 45.0)
           (-30.0 30.0)
           (-30.0 30.0)
  end
  begin
     id 17 
     name lclavicle
     direction 0.968229 0.236071 -0.0824755  
     length 3.60593  
     axis 0 0 0   XYZ
    dof ry rz
    limits (-20.0 10.0)
           (0.0 20.0)
  end
  begin
     id 18 
     name lhumerus
     direction 1 -4.48968e-011 7.8138e-029   
     length 5.06035   
     axis 180 -30 -90   XYZ
    dof rx ry rz
    limits (-60.0 90.0)
           (-90.0 90.0)
           (-90.0 90.0)
  end
  begin
     id 19
     name lradius
     direction 1 -4.48967e-011 9.02887e-028   
     length 3.1478   
     axis 180 -30 -90   XYZ
    dof rx
    limits (-10.0 170.0)
  end
  begin
     id 20
     name lwrist
     direction 1 -4.48961e-011 7.20928e-028   
     length 1.5739   
     axis -5.52449e-016 90 90   XYZ
    dof ry
    limits (-180.0 0.0)
 end
  begin
     id 21 
     name lhand
     direction 1 -4.48972e-011 1.44186e-027   
     length 0.606747   
     axis -9.20027e-016 90 90   XYZ
    dof rx rz
    limits (-90.0 90.0)
           (-45.0 45.0)
  end
  begin
     id 22 
     name lfingers
     direction 1 -4.48943e-011 2.88371e-027   
     length 0.489175   
     axis -1.84005e-015 90 90   XYZ
    dof rx
    limits (0.0 90.0)
  end
  begin
     id 23
     name lthumb
     direction 0.707107 -6.34917e-011 0.707107   
     length 0.70236   
     axis -90 45 2.85299e-015   XYZ
    dof rx rz
    limits (-45.0 45.0)
           (-45.0 45.0)
  end
  begin
     id 24 
     name rclavicle
     direction -0.978165 0.207816 0.0022268   
     length 3.35425  
     axis 0 0 0   XYZ 
    dof ry rz
    limits (-10.0 20.0)
           (-20.0 0.0)
  end
  begin
     id 25 
     name rhumerus
     direction -1 -4.48964e-011 -4.02159e-027  
     length 5.12273   
     axis 180 30 90   XYZ
    dof rx ry rz
    limits (-90.0 60.0)
           (-90.0 90.0)
           (-90.0 90.0)
  end
  begin
     id 26 
     name rradius
     direction -1 -4.48966e-011 1.62746e-027   
     length 3.422   
     axis 180 30 90   XYZ
    dof rx
    limits (-10.0 170.0)
  end
  begin
     id 27 
     name rwrist
     direction -1 -4.4896e-011 7.20928e-028   
     length 1.711   
     axis -5.52449e-016 -90 -90   XYZ
    dof ry
    limits (-180.0 0.0)
  end
  begin
     id 28
     name rhand
     direction -1 -4.48979e-011 1.44186e-027   
     length 0.704599   
     axis -9.20027e-016 -90 -90   XYZ
    dof rx rz
    limits (-90.0 90.0)
           (-45.0 45.0)
  end
  begin
     id 29
     name rfingers
     direction -1 -4.48962e-011 2.88371e-027   
     length 0.568066   
     axis -1.84005e-015 -90 -90   XYZ
    dof rx
    limits (0.0 90.0)
  end
  begin
     id 30
     name rthumb
     direction -0.707107 -6.34949e-011 0.707107   
     length 0.815633   
     axis -90 -45 -2.85299e-015   XYZ
    dof rx rz
    limits (-45.0 45.0)
           (-45.0 45.0)
  end
:hierarchy
  begin
    root lhipjoint rhipjoint lowerback
    lhipjoint lfemur
    lfemur ltibia
    ltibia lfoot
    lfoot ltoes
    rhipjoint rfemur
    rfemur rtibia
    rtibia rfoot
    rfoot rtoes
    lowerback upperback
    upperback thorax
    thorax lowerneck lclavicle rclavicle
    lowerneck upperneck
    upperneck head
    lclavicle lhumerus
    lhumerus lradius
    lradius lwrist
    lwrist lhand lthumb
    lhand lfingers
    rclavicle rhumerus
    rhumerus rradius
    rradius rwrist
    rwrist rhand rthumb
    rhand rfingers
  end

#!OML:ASF E:\id_vita\Project 1\Capture day 1\Session 1\Male1.ASF
:FULLY-SPECIFIED
:DEGREES
478
root -19.4173 12.2637 -5.6179 37.4274 81.59 -8.9751
lowerback 27.3413 1.89179 -6.96513
upperback 3.40451 0.354488 -2.61942
thorax -11.3911 0.521294 0.881915
lowerneck -7.55672 1.78849 -1.2966
upperneck 26.4179 1.85465 6.46756
head 9.46117 1.58889 2.68292
rclavicle -7.15625e-015 -1.39149e-015
rhumerus 60.1623 18.6948 -58.1287
rradius 29.4832
rwrist 20.1413
rhand -41.7179 263.342
rfingers 7.12502
rthumb -14.6234 67.194
lclavicle -7.15625e-015 -1.39149e-015
lhumerus 60.7748 -10.4569 46.592
lradius 18.9919
lwrist -25.2491
lhand -35.5742 81.9026
lfingers 7.12502
lthumb -8.6989 -111.703
rfemur -88.5738 1.30215 31.1102
rtibia 93.872
rfoot -45.6345 -16.5039
rtoes -3.18476
lfemur -6.91857 4.76709 -28.7639
ltibia 26.0529
lfoot -23.7835 -1.23302
ltoes 21.9056
479
root -19.3391 12.2845 -5.63165 34.9911 81.2162 -11.4852
lowerback 27.6231 1.96791 -6.88782
upperback 3.27666 0.424272 -2.68584
thorax -11.6915 0.553807 0.727278
lowerneck -7.46414 1.91146 -1.44118
upperneck 25.2848 1.96555 6.70282
head 9.03301 1.62693 2.75894
rclavicle -3.65764e-014 7.55382e-015
rhumerus 60.2737 19.0065 -57.9385
rradius 29.6866
rwrist 20.2857
rhand -42.1794 263.814
rfingers 7.12502
rthumb -15.068 66.7541
lclavicle -3.65764e-014 7.55382e-015
lhumerus 60.5117 -10.267 46.3804
lradius 19.027
lwrist -25.138
lhand -35.2691 82.6066
lfingers 7.12502
lthumb -8.40448 -112.419
rfemur -87.9839 1.57005 31.1925
rtibia 93.6083
rfoot -46.5518 -14.326
rtoes 1.6667
lfemur -6.9068 4.5639 -28.6642
ltibia 26.1912
lfoot -22.5021 -1.16629
ltoes 23.9733
480
root -19.2619 12.3031 -5.64252 32.7244 80.851 -13.8291
lowerback 27.8228 2.06479 -6.85139
upperback 3.16968 0.520174 -2.73564
thorax -11.9268 0.598133 0.606425
lowerneck -7.34677 1.98845 -1.62252
upperneck 24.2176 2.01581 7.00582
head 8.63149 1.64193 2.85996
rclavicle -2.38542e-015 -1.74931e-014
rhumerus 60.2768 19.1976 -57.9991
rradius 29.8087
rwrist 20.659
rhand -42.1865 263.851
rfingers 7.12502
rthumb -15.0748 66.7183
lclavicle -2.38542e-015 -1.74931e-014
lhumerus 60.2611 -9.97598 46.6569
lradius 18.953
lwrist -25.512
lhand -35.1146 82.7727
lfingers 7.12502
lthumb -8.25533 -112.591
rfemur -87.3825 1.86716 31.3774
rtibia 93.3186
rfoot -46.9642 -13.9678
rtoes 2.44308
lfemur -6.95816 4.40274 -28.5172
ltibia 26.4618
lfoot -21.3131 -1.15621
ltoes 27.0809
481
root -19.1863 12.3216 -5.64688 31.2204 80.3413 -15.4715
lowerback 27.8819 2.24481 -7.09493
upperback 3.07742 0.653378 -2.78554
thorax -12.0757 0.670751 0.633999
lowerneck -7.23766 2.13898 -1.66335
upperneck 23.111 2.20543 7.05421
head 8.22371 1.70725 2.8612
rclavicle -1.74931e-014 -1.63003e-014
rhumerus 60.3803 19.3659 -57.9932
rradius 29.9016
rwrist 20.7621
rhand -41.6486 263.342
rfingers 7.12502
rthumb -14.5566 67.1889
lclavicle -1.74931e-014 -1.63003e-014
lhumerus 59.9885 -9.4603 47.5396
lradius 18.7736
lwrist -26.4573
lhand -35.3789 81.8896
lfingers 7.12502
lthumb -8.51044 -111.698
rfemur -86.8463 2.33337 31.3899
rtibia 92.9987
rfoot -47.2658 -14.1452
rtoes 2.05057
lfemur -7.16766 4.54034 -28.4828
ltibia 26.9297
lfoot -20.1072 -1.05546
ltoes 29.8379
482
root -19.1142 12.3375 -5.65319 30.4009 79.8993 -16.424
lowerback 27.9178 2.41331 -7.36233
upperback 3.02935 0.775903 -2.80147
thorax -12.1615 0.739714 0.719401
lowerneck -7.12479 2.29707 -1.82472
upperneck 21.8684 2.43105 7.08043
head 7.77248 1.77535 2.87439
rclavicle 3.26007e-014 6.99722e-014
rhumerus 60.6317 19.5425 -57.7201
rradius 30.0287
rwrist 20.7989
rhand -41.6023 263.637
rfingers 7.12502
rthumb -14.512 66.8909
lclavicle 3.26007e-014 6.99722e-014
lhumerus 59.8235 -8.9539 48.3234
lradius 18.6111
lwrist -27.2775
lhand -35.5853 81.5217
lfingers 7.12502
lthumb -8.70959 -111.322
rfemur -86.326 2.709 31.2987
rtibia 92.5803
rfoot -47.3653 -14.7839
rtoes 0.505899
lfemur -7.43905 4.75342 -28.4859
ltibia 27.6089
lfoot -19.0406 -1.07974
ltoes 32.2561
483
root -19.0399 12.353 -5.6642 29.4184 79.6671 -17.4531
lowerback 28.1091 2.47636 -7.36044
upperback 2.98776 0.835302 -2.77341
thorax -12.3152 0.769867 0.721337
lowerneck -6.99446 2.39052 -2.25331
upperneck 20.54 2.58936 7.21956
head 7.29312 1.80201 2.96186
rclavicle 2.06736e-014 2.70347e-014
rhumerus 60.8727 19.8259 -57.2056
rradius 30.2719
rwrist 20.9087
rhand -42.2977 264.749
rfingers 7.12502
rthumb -15.1819 65.8281
lclavicle 2.06736e-014 2.70347e-014
lhumerus 59.629 -8.66995 48.5256
lradius 18.5937
lwrist -27.5651
lhand -35.4937 81.6014
lfingers 7.12502
lthumb -8.6212 -111.405
rfemur -85.6728 2.8729 31.4031
rtibia 91.9939
rfoot -46.6269 -17.8546
rtoes -6.1343
lfemur -7.72035 4.73143 -28.3677
ltibia 28.4554
lfoot -18.0807 -1.1218
ltoes 34.732
